Hanif_Medium_5_0_grf.mot
version=1
nRows=37
nColumns=19
inDegrees=yes
endheader
time	right_ground_force_vx	right_ground_force_vy	right_ground_force_vz	right_ground_force_px	right_ground_force_py	right_ground_force_pz	right_ground_torque_x	right_ground_torque_y	right_ground_torque_z	left_ground_force_vx	left_ground_force_vy	left_ground_force_vz	left_ground_force_px	left_ground_force_py	left_ground_force_pz	left_ground_torque_x	left_ground_torque_y	left_ground_torque_z
0.200000	-0.602540	266.076000	52.927200	0.211763	0.000000	-1.429370	-20.390500	-0.748902	3.114010	-2.603050	298.336000	-53.754100	0.228116	0.000000	-0.977491	22.249300	-1.281500	8.926150
0.205000	-0.606923	266.162000	52.715000	0.212536	0.000000	-1.430670	-20.048900	-0.784413	3.321320	-2.980200	298.208000	-53.599500	0.227715	0.000000	-0.977560	22.263200	-1.184570	8.784660
0.210000	-0.688251	267.200000	52.006800	0.211567	0.000000	-1.430800	-20.092600	-0.751486	3.071590	-2.775660	297.814000	-53.628600	0.227470	0.000000	-0.977161	22.112900	-1.197810	8.698970
0.215000	-0.775131	267.550000	52.616600	0.211642	0.000000	-1.429940	-20.350100	-0.750779	3.099350	-2.440400	298.263000	-53.609400	0.227888	0.000000	-0.977655	22.290700	-1.246070	8.843310
0.220000	-0.719171	267.018000	52.275100	0.211957	0.000000	-1.429640	-20.390100	-0.725706	3.183920	-2.425280	297.555000	-53.394000	0.227872	0.000000	-0.978013	22.344200	-1.225590	8.813050
0.225000	-1.033040	265.619000	52.631900	0.211539	0.000000	-1.429650	-20.280500	-0.828157	3.036890	-2.823070	299.893000	-53.793800	0.227920	0.000000	-0.977447	22.353600	-1.189730	8.893370
0.230000	-0.682745	267.667000	52.972600	0.211388	0.000000	-1.430570	-20.190600	-0.943004	2.991110	-2.348270	296.586000	-53.354800	0.229115	0.000000	-0.978217	22.331900	-1.247700	9.170770
0.235000	-0.570577	267.902000	52.844300	0.212655	0.000000	-1.431190	-20.041000	-0.786613	3.375510	-2.509000	299.877000	-53.938700	0.228206	0.000000	-0.976858	22.172900	-1.223370	8.985220
0.240000	-0.067558	266.651000	52.886200	0.212351	0.000000	-1.428980	-20.536900	-0.776673	3.269810	-2.236840	297.236000	-53.397100	0.228318	0.000000	-0.978376	22.426000	-1.192630	8.933340
0.245000	-0.122056	269.402000	52.783400	0.211974	0.000000	-1.429790	-20.529900	-0.791719	3.196260	-2.005700	297.516000	-53.453100	0.228176	0.000000	-0.977816	22.278200	-1.190700	8.894280
0.250000	-0.260047	268.291000	52.466700	0.211895	0.000000	-1.430910	-20.146200	-0.705633	3.179220	-2.454020	299.996000	-53.395600	0.227502	0.000000	-0.977803	22.463900	-1.193110	8.756860
0.255000	0.077443	268.015000	52.936900	0.211337	0.000000	-1.430860	-20.138300	-0.799694	2.997780	-2.225840	298.856000	-53.580500	0.228081	0.000000	-0.977962	22.424600	-1.232410	8.912680
0.260000	-0.078995	268.676000	52.989800	0.211767	0.000000	-1.430910	-20.175200	-0.793937	3.129060	-2.183370	298.016000	-53.176000	0.228396	0.000000	-0.978172	22.423600	-1.200450	8.975430
0.265000	-0.190102	266.302000	53.121000	0.211571	0.000000	-1.430730	-20.045300	-0.714166	3.064430	-2.381920	299.022000	-53.375900	0.228226	0.000000	-0.978293	22.537600	-1.241510	8.962630
0.270000	-0.309431	268.197000	52.970700	0.211070	0.000000	-1.431130	-20.079000	-0.775646	2.936010	-2.429810	299.113000	-53.187800	0.228535	0.000000	-0.977886	22.423600	-1.292400	9.067330
0.275000	-0.373028	266.929000	52.813500	0.211198	0.000000	-1.430410	-20.176700	-0.820051	2.949400	-2.045720	298.676000	-53.086300	0.228763	0.000000	-0.978067	22.440600	-1.243990	9.110460
0.280000	-0.512192	268.530000	52.817200	0.212120	0.000000	-1.430410	-20.299000	-0.824482	3.225850	-2.619370	298.394000	-52.970500	0.228012	0.000000	-0.977860	22.363600	-1.280020	8.884100
0.285000	-0.733920	267.581000	53.380100	0.210934	0.000000	-1.430370	-20.236100	-0.736040	2.906520	-1.946540	296.980000	-53.439000	0.228186	0.000000	-0.977904	22.263600	-1.199440	8.883850
0.290000	-0.095834	266.809000	52.584000	0.211618	0.000000	-1.430350	-20.183000	-0.772618	3.069270	-2.360950	298.825000	-52.951200	0.228147	0.000000	-0.977981	22.428800	-1.186490	8.916800
0.295000	-0.648287	266.339000	52.673400	0.211179	0.000000	-1.429580	-20.352800	-0.755467	2.954250	-2.346550	298.451000	-53.345100	0.228641	0.000000	-0.977256	22.184900	-1.259420	9.077280
0.300000	-0.687433	268.159000	52.447500	0.211413	0.000000	-1.430910	-20.137000	-0.780294	3.035050	-2.170590	297.145000	-53.235900	0.228590	0.000000	-0.977699	22.218100	-1.284970	9.027390
0.305000	-0.846384	266.315000	52.939000	0.211835	0.000000	-1.429910	-20.262600	-0.743204	3.141590	-2.282190	296.462000	-53.003400	0.228182	0.000000	-0.978107	22.288700	-1.242380	8.874860
0.310000	-0.893397	265.244000	52.874200	0.212514	0.000000	-1.429640	-20.253300	-0.770585	3.311090	-2.461500	295.737000	-52.844400	0.228404	0.000000	-0.977560	22.074100	-1.185430	8.912870
0.315000	-0.827167	266.977000	52.368300	0.211218	0.000000	-1.430060	-20.275000	-0.718115	2.981560	-2.585320	296.098000	-52.916000	0.228279	0.000000	-0.978565	22.400700	-1.292370	8.906670
0.320000	-0.708286	266.507000	52.465900	0.212155	0.000000	-1.429830	-20.300300	-0.691032	3.239620	-2.651170	295.055000	-52.894700	0.229088	0.000000	-0.977463	21.997600	-1.267460	9.121150
0.325000	-0.264135	267.552000	52.747000	0.211478	0.000000	-1.430190	-20.283900	-0.724138	3.051590	-2.416870	293.472000	-53.217300	0.228652	0.000000	-0.977507	21.890000	-1.242330	8.943100
0.330000	-0.438373	267.620000	53.008200	0.211868	0.000000	-1.429870	-20.374400	-0.774755	3.153910	-2.284970	295.595000	-52.684800	0.228969	0.000000	-0.977384	22.009600	-1.166970	9.073490
0.335000	-0.156570	266.599000	53.103700	0.211892	0.000000	-1.429860	-20.298100	-0.729656	3.153290	-2.410570	296.110000	-52.608000	0.228459	0.000000	-0.978313	22.324400	-1.193270	8.937110
0.340000	-0.293625	267.309000	52.722700	0.211679	0.000000	-1.432050	-19.767500	-0.714540	3.106780	-2.686660	295.429000	-52.867700	0.229131	0.000000	-0.977851	22.140000	-1.224190	9.136830
0.345000	-0.332739	267.891000	53.123500	0.211466	0.000000	-1.430010	-20.357400	-0.775786	3.043660	-2.590570	294.125000	-52.259000	0.229046	0.000000	-0.978524	22.238900	-1.161860	9.053920
0.350000	-0.674654	268.212000	53.046800	0.212046	0.000000	-1.430490	-20.251300	-0.801291	3.208980	-2.387910	295.007000	-52.592800	0.229026	0.000000	-0.978374	22.259200	-1.162820	9.074340
0.355000	-0.359611	266.919000	53.369300	0.211876	0.000000	-1.429830	-20.331400	-0.755043	3.151150	-2.572210	294.213000	-52.711900	0.229132	0.000000	-0.978487	22.234600	-1.163950	9.089420
0.360000	-0.436926	266.365000	53.526300	0.212186	0.000000	-1.428890	-20.540300	-0.804280	3.222190	-2.804750	294.993000	-53.138200	0.228981	0.000000	-0.978531	22.309700	-1.246760	9.089500
0.365000	-0.557900	266.618000	53.154500	0.212438	0.000000	-1.430020	-20.257400	-0.738956	3.309170	-3.151920	295.266000	-52.511900	0.229189	0.000000	-0.978578	22.347600	-1.222980	9.150840
0.370000	-1.300370	267.577000	52.750200	0.212239	0.000000	-1.429490	-20.472700	-0.830573	3.258030	-2.900610	296.897000	-52.664500	0.229148	0.000000	-0.978073	22.317900	-1.215460	9.180410
0.375000	-0.554859	267.840000	53.115800	0.212281	0.000000	-1.429950	-20.370200	-0.709836	3.286360	-2.943170	295.736000	-53.076900	0.229015	0.000000	-0.978206	22.270700	-1.202190	9.112790
0.380000	-1.234720	267.533000	53.076000	0.212099	0.000000	-1.430080	-20.310000	-0.789006	3.226240	-2.624430	296.438000	-52.853200	0.229302	0.000000	-0.978519	22.412600	-1.163040	9.205090
